<svg width="135" height="108" viewBox="0 0 135 108" fill="none" xmlns="http://www.w3.org/2000/svg">
<rect width="133" height="62" rx="5" fill="black"/>
<g filter="url(#filter0_d_1209_183)">
<path d="M29.8 25.035V30.139H36.064C36.5667 30.139 36.9823 30.3033 37.311 30.632C37.659 30.9413 37.833 31.3473 37.833 31.85C37.833 32.2753 37.659 32.6523 37.311 32.981C36.9823 33.3097 36.5667 33.474 36.064 33.474H29.8V40.231C29.8 40.7337 29.6163 41.159 29.249 41.507C28.901 41.8357 28.4853 42 28.002 42C27.4607 42 27.016 41.8357 26.668 41.507C26.3393 41.1783 26.175 40.753 26.175 40.231V23.469C26.175 22.9663 26.3393 22.5507 26.668 22.222C27.016 21.874 27.4413 21.7 27.944 21.7H37.369C37.8717 21.7 38.2873 21.8643 38.616 22.193C38.964 22.5023 39.138 22.9083 39.138 23.411C39.138 23.8363 38.964 24.2133 38.616 24.542C38.2873 24.8707 37.8717 25.035 37.369 25.035H29.8ZM48.8426 42.29C47.4506 42.29 46.2132 42.116 45.1306 41.768C44.0479 41.42 43.0329 40.8303 42.0856 39.999C41.5636 39.535 41.3026 39.0227 41.3026 38.462C41.3026 38.0173 41.4669 37.6307 41.7956 37.302C42.1242 36.954 42.5206 36.78 42.9846 36.78C43.3519 36.78 43.6806 36.896 43.9706 37.128C44.7439 37.766 45.4979 38.23 46.2326 38.52C46.9672 38.81 47.8372 38.955 48.8426 38.955C49.9252 38.955 50.8532 38.7133 51.6266 38.23C52.4192 37.7467 52.8156 37.1473 52.8156 36.432C52.8156 35.562 52.4289 34.8853 51.6556 34.402C50.8822 33.8993 49.6546 33.5223 47.9726 33.271C43.7386 32.6523 41.6216 30.6803 41.6216 27.355C41.6216 26.137 41.9406 25.0833 42.5786 24.194C43.2166 23.2853 44.0866 22.599 45.1886 22.135C46.2906 21.6517 47.5182 21.41 48.8716 21.41C50.0896 21.41 51.2302 21.5937 52.2936 21.961C53.3762 22.3283 54.2752 22.8117 54.9906 23.411C55.5512 23.8557 55.8316 24.368 55.8316 24.948C55.8316 25.3927 55.6672 25.789 55.3386 26.137C55.0099 26.4657 54.6232 26.63 54.1786 26.63C53.8886 26.63 53.6276 26.543 53.3956 26.369C52.8929 25.963 52.1872 25.5957 51.2786 25.267C50.3892 24.919 49.5869 24.745 48.8716 24.745C47.6536 24.745 46.7062 24.977 46.0296 25.441C45.3722 25.8857 45.0436 26.4753 45.0436 27.21C45.0436 28.0413 45.3819 28.6697 46.0586 29.095C46.7546 29.5203 47.8372 29.8683 49.3066 30.139C50.9692 30.429 52.2936 30.806 53.2796 31.27C54.2849 31.7147 55.0389 32.3333 55.5416 33.126C56.0442 33.8993 56.2956 34.9337 56.2956 36.229C56.2956 37.447 55.9476 38.52 55.2516 39.448C54.5749 40.3567 53.6662 41.0623 52.5256 41.565C51.3849 42.0483 50.1572 42.29 48.8426 42.29ZM70.8153 38.607C71.318 38.607 71.7336 38.7713 72.0623 39.1C72.4103 39.4093 72.5843 39.8153 72.5843 40.318C72.5843 40.8013 72.4103 41.2073 72.0623 41.536C71.7336 41.8453 71.318 42 70.8153 42H61.3903C60.8876 42 60.4623 41.8357 60.1143 41.507C59.7856 41.159 59.6213 40.7337 59.6213 40.231V23.469C59.6213 22.9663 59.7953 22.5507 60.1433 22.222C60.4913 21.874 60.936 21.7 61.4773 21.7C61.9606 21.7 62.3763 21.874 62.7243 22.222C63.0723 22.5507 63.2463 22.9663 63.2463 23.469V38.607H70.8153ZM88.1725 26.195C88.6751 26.195 89.0908 26.3593 89.4195 26.688C89.7481 27.0167 89.9125 27.442 89.9125 27.964V40.231C89.9125 40.7337 89.7481 41.159 89.4195 41.507C89.0908 41.8357 88.6751 42 88.1725 42C87.6698 42 87.2541 41.8357 86.9255 41.507C86.6161 41.1783 86.4518 40.7627 86.4325 40.26C85.9491 40.8207 85.2918 41.304 84.4605 41.71C83.6485 42.0967 82.7881 42.29 81.8795 42.29C80.5455 42.29 79.3371 41.9517 78.2545 41.275C77.1718 40.579 76.3115 39.622 75.6735 38.404C75.0548 37.186 74.7455 35.8037 74.7455 34.257C74.7455 32.7103 75.0548 31.328 75.6735 30.11C76.2921 28.8727 77.1331 27.9157 78.1965 27.239C79.2791 26.543 80.4681 26.195 81.7635 26.195C82.6915 26.195 83.5615 26.369 84.3735 26.717C85.1855 27.0457 85.8718 27.471 86.4325 27.993V27.964C86.4325 27.4613 86.5968 27.0457 86.9255 26.717C87.2541 26.369 87.6698 26.195 88.1725 26.195ZM82.3145 39.1C83.5711 39.1 84.5958 38.6457 85.3885 37.737C86.1811 36.809 86.5775 35.649 86.5775 34.257C86.5775 32.865 86.1811 31.705 85.3885 30.777C84.5958 29.849 83.5711 29.385 82.3145 29.385C81.0771 29.385 80.0621 29.849 79.2695 30.777C78.4768 31.705 78.0805 32.865 78.0805 34.257C78.0805 35.649 78.4671 36.809 79.2405 37.737C80.0331 38.6457 81.0578 39.1 82.3145 39.1ZM101.717 26.195C103.051 26.195 104.259 26.543 105.342 27.239C106.424 27.9157 107.275 28.863 107.894 30.081C108.532 31.299 108.851 32.6813 108.851 34.228C108.851 35.7747 108.541 37.1667 107.923 38.404C107.304 39.622 106.453 40.579 105.371 41.275C104.307 41.9517 103.128 42.29 101.833 42.29C100.905 42.29 100.025 42.1063 99.1938 41.739C98.3818 41.3523 97.7052 40.8883 97.1638 40.347V40.521C97.1638 41.0237 96.9995 41.449 96.6708 41.797C96.3422 42.1257 95.9265 42.29 95.4238 42.29C94.9212 42.29 94.5055 42.1257 94.1768 41.797C93.8482 41.4683 93.6838 41.043 93.6838 40.521V22.309C93.6838 21.8063 93.8482 21.3907 94.1768 21.062C94.5055 20.714 94.9212 20.54 95.4238 20.54C95.9265 20.54 96.3422 20.714 96.6708 21.062C96.9995 21.3907 97.1638 21.8063 97.1638 22.309V28.37C97.6278 27.79 98.2755 27.2873 99.1068 26.862C99.9382 26.4173 100.808 26.195 101.717 26.195ZM101.282 39.1C102.519 39.1 103.534 38.636 104.327 37.708C105.119 36.78 105.516 35.62 105.516 34.228C105.516 32.836 105.119 31.6857 104.327 30.777C103.553 29.849 102.538 29.385 101.282 29.385C100.025 29.385 99.0005 29.849 98.2078 30.777C97.4152 31.6857 97.0188 32.836 97.0188 34.228C97.0188 35.62 97.4152 36.78 98.2078 37.708C99.0005 38.636 100.025 39.1 101.282 39.1Z" fill="white"/>
</g>
<g filter="url(#filter1_d_1209_183)">
<path d="M29.5596 82.884C29.7276 82.884 29.8636 82.936 29.9676 83.04C30.0796 83.144 30.1356 83.28 30.1356 83.448C30.1356 83.608 30.0796 83.74 29.9676 83.844C29.8636 83.948 29.7276 84 29.5596 84H25.5036C25.3356 84 25.1956 83.944 25.0836 83.832C24.9796 83.72 24.9276 83.584 24.9276 83.424V76.176C24.9276 76.016 24.9836 75.88 25.0956 75.768C25.2076 75.656 25.3516 75.6 25.5276 75.6C25.6876 75.6 25.8236 75.656 25.9356 75.768C26.0556 75.88 26.1156 76.016 26.1156 76.176V82.884H29.5596ZM36.4813 77.628C36.6493 77.628 36.7853 77.684 36.8893 77.796C37.0013 77.9 37.0573 78.04 37.0573 78.216V83.424C37.0573 83.584 37.0013 83.72 36.8893 83.832C36.7853 83.944 36.6493 84 36.4813 84C36.3133 84 36.1773 83.948 36.0733 83.844C35.9693 83.732 35.9173 83.592 35.9173 83.424V83.112C35.7093 83.392 35.4253 83.632 35.0653 83.832C34.7053 84.024 34.3173 84.12 33.9013 84.12C33.3573 84.12 32.8613 83.98 32.4133 83.7C31.9733 83.42 31.6253 83.032 31.3693 82.536C31.1213 82.032 30.9973 81.468 30.9973 80.844C30.9973 80.22 31.1213 79.66 31.3693 79.164C31.6253 78.66 31.9733 78.268 32.4133 77.988C32.8533 77.708 33.3373 77.568 33.8653 77.568C34.2893 77.568 34.6813 77.656 35.0413 77.832C35.4093 78.008 35.7013 78.232 35.9173 78.504V78.216C35.9173 78.048 35.9693 77.908 36.0733 77.796C36.1773 77.684 36.3133 77.628 36.4813 77.628ZM34.0333 83.064C34.4093 83.064 34.7413 82.968 35.0293 82.776C35.3253 82.584 35.5533 82.32 35.7133 81.984C35.8813 81.648 35.9653 81.268 35.9653 80.844C35.9653 80.428 35.8813 80.052 35.7133 79.716C35.5533 79.38 35.3253 79.116 35.0293 78.924C34.7413 78.724 34.4093 78.624 34.0333 78.624C33.6573 78.624 33.3213 78.72 33.0253 78.912C32.7373 79.104 32.5093 79.368 32.3413 79.704C32.1813 80.04 32.1013 80.42 32.1013 80.844C32.1013 81.268 32.1813 81.648 32.3413 81.984C32.5093 82.32 32.7373 82.584 33.0253 82.776C33.3213 82.968 33.6573 83.064 34.0333 83.064ZM41.9084 77.568C42.4524 77.568 42.9444 77.708 43.3844 77.988C43.8244 78.268 44.1684 78.656 44.4164 79.152C44.6724 79.648 44.8004 80.208 44.8004 80.832C44.8004 81.456 44.6724 82.02 44.4164 82.524C44.1684 83.028 43.8244 83.42 43.3844 83.7C42.9444 83.98 42.4604 84.12 41.9324 84.12C41.5164 84.12 41.1284 84.028 40.7684 83.844C40.4084 83.66 40.1164 83.432 39.8924 83.16V83.508C39.8924 83.668 39.8364 83.804 39.7244 83.916C39.6204 84.028 39.4844 84.084 39.3164 84.084C39.1564 84.084 39.0204 84.032 38.9084 83.928C38.8044 83.816 38.7524 83.676 38.7524 83.508V75.696C38.7524 75.528 38.8044 75.392 38.9084 75.288C39.0124 75.176 39.1484 75.12 39.3164 75.12C39.4844 75.12 39.6204 75.176 39.7244 75.288C39.8364 75.4 39.8924 75.536 39.8924 75.696V78.624C40.0844 78.336 40.3644 78.088 40.7324 77.88C41.1004 77.672 41.4924 77.568 41.9084 77.568ZM41.7764 83.064C42.1444 83.064 42.4764 82.968 42.7724 82.776C43.0684 82.576 43.2964 82.308 43.4564 81.972C43.6244 81.628 43.7084 81.248 43.7084 80.832C43.7084 80.416 43.6244 80.04 43.4564 79.704C43.2964 79.368 43.0684 79.104 42.7724 78.912C42.4764 78.72 42.1444 78.624 41.7764 78.624C41.4004 78.624 41.0644 78.72 40.7684 78.912C40.4724 79.104 40.2404 79.368 40.0724 79.704C39.9124 80.032 39.8324 80.408 39.8324 80.832C39.8324 81.256 39.9124 81.636 40.0724 81.972C40.2404 82.308 40.4724 82.576 40.7684 82.776C41.0644 82.968 41.4004 83.064 41.7764 83.064ZM52.0755 80.856C52.0755 81.48 51.9355 82.04 51.6555 82.536C51.3755 83.032 50.9915 83.42 50.5035 83.7C50.0235 83.98 49.4915 84.12 48.9075 84.12C48.3235 84.12 47.7875 83.98 47.2995 83.7C46.8195 83.42 46.4395 83.032 46.1595 82.536C45.8795 82.04 45.7395 81.48 45.7395 80.856C45.7395 80.232 45.8795 79.668 46.1595 79.164C46.4395 78.66 46.8195 78.268 47.2995 77.988C47.7875 77.708 48.3235 77.568 48.9075 77.568C49.4915 77.568 50.0235 77.708 50.5035 77.988C50.9915 78.268 51.3755 78.66 51.6555 79.164C51.9355 79.668 52.0755 80.232 52.0755 80.856ZM50.9355 80.856C50.9355 80.424 50.8435 80.04 50.6595 79.704C50.4835 79.36 50.2395 79.096 49.9275 78.912C49.6235 78.72 49.2835 78.624 48.9075 78.624C48.5315 78.624 48.1875 78.72 47.8755 78.912C47.5715 79.096 47.3275 79.36 47.1435 79.704C46.9675 80.04 46.8795 80.424 46.8795 80.856C46.8795 81.28 46.9675 81.66 47.1435 81.996C47.3275 82.332 47.5715 82.596 47.8755 82.788C48.1875 82.972 48.5315 83.064 48.9075 83.064C49.2835 83.064 49.6235 82.972 49.9275 82.788C50.2395 82.596 50.4835 82.332 50.6595 81.996C50.8435 81.66 50.9355 81.28 50.9355 80.856ZM56.5328 77.568C56.7408 77.568 56.9208 77.624 57.0728 77.736C57.2248 77.84 57.3008 77.972 57.3008 78.132C57.3008 78.324 57.2488 78.472 57.1448 78.576C57.0488 78.672 56.9288 78.72 56.7848 78.72C56.7128 78.72 56.6048 78.696 56.4608 78.648C56.2928 78.592 56.1608 78.564 56.0648 78.564C55.8168 78.564 55.5728 78.652 55.3328 78.828C55.1008 78.996 54.9088 79.232 54.7568 79.536C54.6128 79.832 54.5408 80.164 54.5408 80.532V83.424C54.5408 83.584 54.4848 83.72 54.3728 83.832C54.2688 83.944 54.1328 84 53.9648 84C53.7968 84 53.6608 83.948 53.5568 83.844C53.4528 83.732 53.4008 83.592 53.4008 83.424V78.288C53.4008 78.128 53.4528 77.992 53.5568 77.88C53.6688 77.768 53.8048 77.712 53.9648 77.712C54.1328 77.712 54.2688 77.768 54.3728 77.88C54.4848 77.992 54.5408 78.128 54.5408 78.288V78.9C54.7168 78.508 54.9808 78.192 55.3328 77.952C55.6848 77.704 56.0848 77.576 56.5328 77.568ZM63.3172 77.628C63.4852 77.628 63.6212 77.684 63.7252 77.796C63.8372 77.9 63.8932 78.04 63.8932 78.216V83.424C63.8932 83.584 63.8372 83.72 63.7252 83.832C63.6212 83.944 63.4852 84 63.3172 84C63.1492 84 63.0132 83.948 62.9092 83.844C62.8052 83.732 62.7532 83.592 62.7532 83.424V83.112C62.5452 83.392 62.2612 83.632 61.9012 83.832C61.5412 84.024 61.1532 84.12 60.7372 84.12C60.1932 84.12 59.6972 83.98 59.2492 83.7C58.8092 83.42 58.4612 83.032 58.2052 82.536C57.9572 82.032 57.8332 81.468 57.8332 80.844C57.8332 80.22 57.9572 79.66 58.2052 79.164C58.4612 78.66 58.8092 78.268 59.2492 77.988C59.6892 77.708 60.1732 77.568 60.7012 77.568C61.1252 77.568 61.5172 77.656 61.8772 77.832C62.2452 78.008 62.5372 78.232 62.7532 78.504V78.216C62.7532 78.048 62.8052 77.908 62.9092 77.796C63.0132 77.684 63.1492 77.628 63.3172 77.628ZM60.8692 83.064C61.2452 83.064 61.5772 82.968 61.8652 82.776C62.1612 82.584 62.3892 82.32 62.5492 81.984C62.7172 81.648 62.8012 81.268 62.8012 80.844C62.8012 80.428 62.7172 80.052 62.5492 79.716C62.3892 79.38 62.1612 79.116 61.8652 78.924C61.5772 78.724 61.2452 78.624 60.8692 78.624C60.4932 78.624 60.1572 78.72 59.8612 78.912C59.5732 79.104 59.3452 79.368 59.1772 79.704C59.0172 80.04 58.9372 80.42 58.9372 80.844C58.9372 81.268 59.0172 81.648 59.1772 81.984C59.3452 82.32 59.5732 82.584 59.8612 82.776C60.1572 82.968 60.4932 83.064 60.8692 83.064ZM67.2923 78.828V82.404C67.2923 82.804 67.4723 83.004 67.8323 83.004C67.8883 83.004 67.9643 82.992 68.0603 82.968C68.1563 82.936 68.2323 82.92 68.2883 82.92C68.3923 82.92 68.4803 82.964 68.5523 83.052C68.6243 83.14 68.6603 83.252 68.6603 83.388C68.6603 83.556 68.5643 83.7 68.3723 83.82C68.1803 83.94 67.9643 84 67.7243 84C67.4603 84 67.2163 83.972 66.9923 83.916C66.7763 83.86 66.5803 83.72 66.4043 83.496C66.2363 83.264 66.1523 82.916 66.1523 82.452V78.828H65.4563C65.3043 78.828 65.1763 78.78 65.0723 78.684C64.9763 78.58 64.9283 78.452 64.9283 78.3C64.9283 78.148 64.9763 78.024 65.0723 77.928C65.1763 77.832 65.3043 77.784 65.4563 77.784H66.1523V76.776C66.1523 76.616 66.2043 76.48 66.3083 76.368C66.4203 76.256 66.5603 76.2 66.7283 76.2C66.8883 76.2 67.0203 76.256 67.1243 76.368C67.2363 76.48 67.2923 76.616 67.2923 76.776V77.784H68.2883C68.4403 77.784 68.5643 77.836 68.6603 77.94C68.7643 78.036 68.8163 78.16 68.8163 78.312C68.8163 78.464 68.7643 78.588 68.6603 78.684C68.5643 78.78 68.4403 78.828 68.2883 78.828H67.2923ZM76.0989 80.856C76.0989 81.48 75.9589 82.04 75.6789 82.536C75.3989 83.032 75.0149 83.42 74.5269 83.7C74.0469 83.98 73.5149 84.12 72.9309 84.12C72.3469 84.12 71.8109 83.98 71.3229 83.7C70.8429 83.42 70.4629 83.032 70.1829 82.536C69.9029 82.04 69.7629 81.48 69.7629 80.856C69.7629 80.232 69.9029 79.668 70.1829 79.164C70.4629 78.66 70.8429 78.268 71.3229 77.988C71.8109 77.708 72.3469 77.568 72.9309 77.568C73.5149 77.568 74.0469 77.708 74.5269 77.988C75.0149 78.268 75.3989 78.66 75.6789 79.164C75.9589 79.668 76.0989 80.232 76.0989 80.856ZM74.9589 80.856C74.9589 80.424 74.8669 80.04 74.6829 79.704C74.5069 79.36 74.2629 79.096 73.9509 78.912C73.6469 78.72 73.3069 78.624 72.9309 78.624C72.5549 78.624 72.2109 78.72 71.8989 78.912C71.5949 79.096 71.3509 79.36 71.1669 79.704C70.9909 80.04 70.9029 80.424 70.9029 80.856C70.9029 81.28 70.9909 81.66 71.1669 81.996C71.3509 82.332 71.5949 82.596 71.8989 82.788C72.2109 82.972 72.5549 83.064 72.9309 83.064C73.3069 83.064 73.6469 82.972 73.9509 82.788C74.2629 82.596 74.5069 82.332 74.6829 81.996C74.8669 81.66 74.9589 81.28 74.9589 80.856ZM72.9069 77.232C72.8429 77.232 72.7749 77.204 72.7029 77.148C72.6309 77.092 72.5989 77.016 72.6069 76.92C72.6069 76.856 72.6309 76.784 72.6789 76.704L73.3869 75.516C73.4509 75.404 73.5269 75.312 73.6149 75.24C73.7109 75.168 73.8189 75.132 73.9389 75.132C74.1149 75.132 74.2469 75.18 74.3349 75.276C74.4309 75.364 74.4749 75.484 74.4669 75.636C74.4669 75.78 74.4069 75.92 74.2869 76.056L73.3869 77.04C73.2589 77.168 73.0989 77.232 72.9069 77.232ZM80.5563 77.568C80.7643 77.568 80.9443 77.624 81.0963 77.736C81.2483 77.84 81.3243 77.972 81.3243 78.132C81.3243 78.324 81.2723 78.472 81.1683 78.576C81.0723 78.672 80.9523 78.72 80.8083 78.72C80.7363 78.72 80.6283 78.696 80.4843 78.648C80.3163 78.592 80.1843 78.564 80.0883 78.564C79.8403 78.564 79.5963 78.652 79.3563 78.828C79.1243 78.996 78.9323 79.232 78.7803 79.536C78.6363 79.832 78.5643 80.164 78.5643 80.532V83.424C78.5643 83.584 78.5083 83.72 78.3963 83.832C78.2923 83.944 78.1563 84 77.9883 84C77.8203 84 77.6843 83.948 77.5803 83.844C77.4763 83.732 77.4243 83.592 77.4243 83.424V78.288C77.4243 78.128 77.4763 77.992 77.5803 77.88C77.6923 77.768 77.8283 77.712 77.9883 77.712C78.1563 77.712 78.2923 77.768 78.3963 77.88C78.5083 77.992 78.5643 78.128 78.5643 78.288V78.9C78.7403 78.508 79.0043 78.192 79.3563 77.952C79.7083 77.704 80.1083 77.576 80.5563 77.568ZM83.4613 83.424C83.4613 83.584 83.4053 83.72 83.2933 83.832C83.1893 83.944 83.0533 84 82.8853 84C82.7253 84 82.5893 83.944 82.4773 83.832C82.3733 83.72 82.3213 83.584 82.3213 83.424V78.228C82.3213 78.068 82.3733 77.932 82.4773 77.82C82.5893 77.708 82.7253 77.652 82.8853 77.652C83.0533 77.652 83.1893 77.708 83.2933 77.82C83.4053 77.932 83.4613 78.068 83.4613 78.228V83.424ZM82.8853 76.86C82.6533 76.86 82.4853 76.82 82.3813 76.74C82.2853 76.652 82.2373 76.516 82.2373 76.332V76.14C82.2373 75.948 82.2893 75.812 82.3933 75.732C82.5053 75.652 82.6733 75.612 82.8973 75.612C83.1213 75.612 83.2813 75.656 83.3773 75.744C83.4813 75.824 83.5333 75.956 83.5333 76.14V76.332C83.5333 76.524 83.4813 76.66 83.3773 76.74C83.2733 76.82 83.1093 76.86 82.8853 76.86ZM91.052 80.856C91.052 81.48 90.912 82.04 90.632 82.536C90.352 83.032 89.968 83.42 89.48 83.7C89 83.98 88.468 84.12 87.884 84.12C87.3 84.12 86.764 83.98 86.276 83.7C85.796 83.42 85.416 83.032 85.136 82.536C84.856 82.04 84.716 81.48 84.716 80.856C84.716 80.232 84.856 79.668 85.136 79.164C85.416 78.66 85.796 78.268 86.276 77.988C86.764 77.708 87.3 77.568 87.884 77.568C88.468 77.568 89 77.708 89.48 77.988C89.968 78.268 90.352 78.66 90.632 79.164C90.912 79.668 91.052 80.232 91.052 80.856ZM89.912 80.856C89.912 80.424 89.82 80.04 89.636 79.704C89.46 79.36 89.216 79.096 88.904 78.912C88.6 78.72 88.26 78.624 87.884 78.624C87.508 78.624 87.164 78.72 86.852 78.912C86.548 79.096 86.304 79.36 86.12 79.704C85.944 80.04 85.856 80.424 85.856 80.856C85.856 81.28 85.944 81.66 86.12 81.996C86.304 82.332 86.548 82.596 86.852 82.788C87.164 82.972 87.508 83.064 87.884 83.064C88.26 83.064 88.6 82.972 88.904 82.788C89.216 82.596 89.46 82.332 89.636 81.996C89.82 81.66 89.912 81.28 89.912 80.856ZM100.806 75.12C100.974 75.12 101.11 75.176 101.214 75.288C101.326 75.392 101.382 75.528 101.382 75.696V83.424C101.382 83.584 101.326 83.72 101.214 83.832C101.11 83.944 100.974 84 100.806 84C100.638 84 100.502 83.948 100.398 83.844C100.294 83.732 100.242 83.592 100.242 83.424V83.088C100.042 83.376 99.7575 83.62 99.3895 83.82C99.0295 84.02 98.6415 84.12 98.2255 84.12C97.6815 84.12 97.1895 83.98 96.7495 83.7C96.3095 83.42 95.9615 83.032 95.7055 82.536C95.4495 82.032 95.3215 81.468 95.3215 80.844C95.3215 80.22 95.4455 79.66 95.6935 79.164C95.9495 78.66 96.2975 78.268 96.7375 77.988C97.1775 77.708 97.6615 77.568 98.1895 77.568C98.6135 77.568 99.0055 77.656 99.3655 77.832C99.7255 78.008 100.018 78.236 100.242 78.516V75.696C100.242 75.528 100.294 75.392 100.398 75.288C100.502 75.176 100.638 75.12 100.806 75.12ZM98.3575 83.064C98.7335 83.064 99.0655 82.968 99.3535 82.776C99.6495 82.584 99.8775 82.32 100.038 81.984C100.206 81.648 100.29 81.268 100.29 80.844C100.29 80.428 100.206 80.052 100.038 79.716C99.8775 79.372 99.6495 79.104 99.3535 78.912C99.0655 78.72 98.7335 78.624 98.3575 78.624C97.9815 78.624 97.6455 78.72 97.3495 78.912C97.0615 79.104 96.8335 79.372 96.6655 79.716C96.5055 80.052 96.4255 80.428 96.4255 80.844C96.4255 81.268 96.5055 81.648 96.6655 81.984C96.8335 82.32 97.0615 82.584 97.3495 82.776C97.6455 82.968 97.9815 83.064 98.3575 83.064ZM108.597 80.616C108.589 80.76 108.529 80.884 108.417 80.988C108.305 81.084 108.173 81.132 108.021 81.132H103.797C103.853 81.716 104.073 82.184 104.457 82.536C104.849 82.888 105.325 83.064 105.885 83.064C106.269 83.064 106.581 83.008 106.821 82.896C107.061 82.784 107.273 82.64 107.457 82.464C107.577 82.392 107.693 82.356 107.805 82.356C107.941 82.356 108.053 82.404 108.141 82.5C108.237 82.596 108.285 82.708 108.285 82.836C108.285 83.004 108.205 83.156 108.045 83.292C107.813 83.524 107.505 83.72 107.121 83.88C106.737 84.04 106.345 84.12 105.945 84.12C105.297 84.12 104.725 83.984 104.229 83.712C103.741 83.44 103.361 83.06 103.089 82.572C102.825 82.084 102.693 81.532 102.693 80.916C102.693 80.244 102.829 79.656 103.101 79.152C103.381 78.64 103.745 78.248 104.193 77.976C104.649 77.704 105.137 77.568 105.657 77.568C106.169 77.568 106.649 77.7 107.097 77.964C107.545 78.228 107.905 78.592 108.177 79.056C108.449 79.52 108.589 80.04 108.597 80.616ZM105.657 78.624C105.209 78.624 104.821 78.752 104.493 79.008C104.165 79.256 103.949 79.644 103.845 80.172H107.385V80.076C107.345 79.652 107.153 79.304 106.809 79.032C106.473 78.76 106.089 78.624 105.657 78.624ZM8.08606 91.704V94.188H11.0381C11.2061 94.188 11.3421 94.24 11.4461 94.344C11.5581 94.448 11.6141 94.584 11.6141 94.752C11.6141 94.896 11.5581 95.02 11.4461 95.124C11.3421 95.228 11.2061 95.28 11.0381 95.28H8.08606V98.424C8.08606 98.584 8.02606 98.72 7.90606 98.832C7.79406 98.944 7.65806 99 7.49806 99C7.33006 99 7.19006 98.944 7.07806 98.832C6.96606 98.72 6.91006 98.584 6.91006 98.424V91.176C6.91006 91.016 6.96606 90.88 7.07806 90.768C7.19006 90.656 7.32606 90.6 7.48606 90.6H11.5781C11.7461 90.6 11.8821 90.652 11.9861 90.756C12.0981 90.86 12.1541 90.996 12.1541 91.164C12.1541 91.308 12.0981 91.436 11.9861 91.548C11.8741 91.652 11.7381 91.704 11.5781 91.704H8.08606ZM18.4051 92.628C18.5731 92.628 18.7091 92.684 18.8131 92.796C18.9251 92.9 18.9811 93.04 18.9811 93.216V98.424C18.9811 98.584 18.9251 98.72 18.8131 98.832C18.7091 98.944 18.5731 99 18.4051 99C18.2371 99 18.1011 98.948 17.9971 98.844C17.8931 98.732 17.8411 98.592 17.8411 98.424V98.112C17.6331 98.392 17.3491 98.632 16.9891 98.832C16.6291 99.024 16.2411 99.12 15.8251 99.12C15.2811 99.12 14.7851 98.98 14.3371 98.7C13.8971 98.42 13.5491 98.032 13.2931 97.536C13.0451 97.032 12.9211 96.468 12.9211 95.844C12.9211 95.22 13.0451 94.66 13.2931 94.164C13.5491 93.66 13.8971 93.268 14.3371 92.988C14.7771 92.708 15.2611 92.568 15.7891 92.568C16.2131 92.568 16.6051 92.656 16.9651 92.832C17.3331 93.008 17.6251 93.232 17.8411 93.504V93.216C17.8411 93.048 17.8931 92.908 17.9971 92.796C18.1011 92.684 18.2371 92.628 18.4051 92.628ZM15.9571 98.064C16.3331 98.064 16.6651 97.968 16.9531 97.776C17.2491 97.584 17.4771 97.32 17.6371 96.984C17.8051 96.648 17.8891 96.268 17.8891 95.844C17.8891 95.428 17.8051 95.052 17.6371 94.716C17.4771 94.38 17.2491 94.116 16.9531 93.924C16.6651 93.724 16.3331 93.624 15.9571 93.624C15.5811 93.624 15.2451 93.72 14.9491 93.912C14.6611 94.104 14.4331 94.368 14.2651 94.704C14.1051 95.04 14.0251 95.42 14.0251 95.844C14.0251 96.268 14.1051 96.648 14.2651 96.984C14.4331 97.32 14.6611 97.584 14.9491 97.776C15.2451 97.968 15.5811 98.064 15.9571 98.064ZM15.9931 92.268C15.9291 92.268 15.8611 92.24 15.7891 92.184C15.7171 92.128 15.6851 92.052 15.6931 91.956C15.6931 91.892 15.7171 91.82 15.7651 91.74L16.4731 90.552C16.5371 90.44 16.6131 90.348 16.7011 90.276C16.7971 90.204 16.9051 90.168 17.0251 90.168C17.2011 90.168 17.3331 90.216 17.4211 90.312C17.5171 90.4 17.5611 90.52 17.5531 90.672C17.5531 90.816 17.4931 90.956 17.3731 91.092L16.4731 92.076C16.3451 92.204 16.1851 92.268 15.9931 92.268ZM23.8322 92.568C24.3762 92.568 24.8682 92.708 25.3082 92.988C25.7482 93.268 26.0922 93.656 26.3402 94.152C26.5962 94.648 26.7242 95.208 26.7242 95.832C26.7242 96.456 26.5962 97.02 26.3402 97.524C26.0922 98.028 25.7482 98.42 25.3082 98.7C24.8682 98.98 24.3842 99.12 23.8562 99.12C23.4402 99.12 23.0522 99.028 22.6922 98.844C22.3322 98.66 22.0402 98.432 21.8162 98.16V98.508C21.8162 98.668 21.7602 98.804 21.6482 98.916C21.5442 99.028 21.4082 99.084 21.2402 99.084C21.0802 99.084 20.9442 99.032 20.8322 98.928C20.7282 98.816 20.6762 98.676 20.6762 98.508V90.696C20.6762 90.528 20.7282 90.392 20.8322 90.288C20.9362 90.176 21.0722 90.12 21.2402 90.12C21.4082 90.12 21.5442 90.176 21.6482 90.288C21.7602 90.4 21.8162 90.536 21.8162 90.696V93.624C22.0082 93.336 22.2882 93.088 22.6562 92.88C23.0242 92.672 23.4162 92.568 23.8322 92.568ZM23.7002 98.064C24.0682 98.064 24.4002 97.968 24.6962 97.776C24.9922 97.576 25.2202 97.308 25.3802 96.972C25.5482 96.628 25.6322 96.248 25.6322 95.832C25.6322 95.416 25.5482 95.04 25.3802 94.704C25.2202 94.368 24.9922 94.104 24.6962 93.912C24.4002 93.72 24.0682 93.624 23.7002 93.624C23.3242 93.624 22.9882 93.72 22.6922 93.912C22.3962 94.104 22.1642 94.368 21.9962 94.704C21.8362 95.032 21.7562 95.408 21.7562 95.832C21.7562 96.256 21.8362 96.636 21.9962 96.972C22.1642 97.308 22.3962 97.576 22.6922 97.776C22.9882 97.968 23.3242 98.064 23.7002 98.064ZM31.1793 92.568C31.3873 92.568 31.5673 92.624 31.7193 92.736C31.8713 92.84 31.9473 92.972 31.9473 93.132C31.9473 93.324 31.8953 93.472 31.7913 93.576C31.6953 93.672 31.5753 93.72 31.4313 93.72C31.3593 93.72 31.2513 93.696 31.1073 93.648C30.9393 93.592 30.8073 93.564 30.7113 93.564C30.4633 93.564 30.2193 93.652 29.9793 93.828C29.7473 93.996 29.5553 94.232 29.4033 94.536C29.2593 94.832 29.1873 95.164 29.1873 95.532V98.424C29.1873 98.584 29.1313 98.72 29.0193 98.832C28.9153 98.944 28.7793 99 28.6113 99C28.4433 99 28.3073 98.948 28.2033 98.844C28.0993 98.732 28.0473 98.592 28.0473 98.424V93.288C28.0473 93.128 28.0993 92.992 28.2033 92.88C28.3153 92.768 28.4513 92.712 28.6113 92.712C28.7793 92.712 28.9153 92.768 29.0193 92.88C29.1313 92.992 29.1873 93.128 29.1873 93.288V93.9C29.3633 93.508 29.6273 93.192 29.9793 92.952C30.3313 92.704 30.7313 92.576 31.1793 92.568ZM34.0843 98.424C34.0843 98.584 34.0283 98.72 33.9163 98.832C33.8123 98.944 33.6763 99 33.5083 99C33.3483 99 33.2123 98.944 33.1003 98.832C32.9963 98.72 32.9443 98.584 32.9443 98.424V93.228C32.9443 93.068 32.9963 92.932 33.1003 92.82C33.2123 92.708 33.3483 92.652 33.5083 92.652C33.6763 92.652 33.8123 92.708 33.9163 92.82C34.0283 92.932 34.0843 93.068 34.0843 93.228V98.424ZM33.5083 91.86C33.2763 91.86 33.1083 91.82 33.0043 91.74C32.9083 91.652 32.8603 91.516 32.8603 91.332V91.14C32.8603 90.948 32.9123 90.812 33.0163 90.732C33.1283 90.652 33.2963 90.612 33.5203 90.612C33.7443 90.612 33.9043 90.656 34.0003 90.744C34.1043 90.824 34.1563 90.956 34.1563 91.14V91.332C34.1563 91.524 34.1043 91.66 34.0003 91.74C33.8963 91.82 33.7323 91.86 33.5083 91.86ZM38.4591 92.568C39.0911 92.568 39.6151 92.668 40.0311 92.868C40.4551 93.068 40.6671 93.324 40.6671 93.636C40.6671 93.772 40.6231 93.896 40.5351 94.008C40.4471 94.112 40.3351 94.164 40.1991 94.164C40.0951 94.164 40.0111 94.148 39.9471 94.116C39.8911 94.084 39.8111 94.032 39.7071 93.96C39.6591 93.912 39.5831 93.856 39.4791 93.792C39.3831 93.744 39.2471 93.704 39.0711 93.672C38.8951 93.64 38.7351 93.624 38.5911 93.624C38.1751 93.624 37.8071 93.72 37.4871 93.912C37.1671 94.104 36.9191 94.372 36.7431 94.716C36.5671 95.052 36.4791 95.428 36.4791 95.844C36.4791 96.268 36.5631 96.648 36.7311 96.984C36.9071 97.32 37.1511 97.584 37.4631 97.776C37.7751 97.968 38.1311 98.064 38.5311 98.064C38.9471 98.064 39.2831 98 39.5391 97.872C39.5951 97.84 39.6711 97.788 39.7671 97.716C39.8471 97.652 39.9151 97.604 39.9711 97.572C40.0351 97.54 40.1111 97.524 40.1991 97.524C40.3591 97.524 40.4831 97.576 40.5711 97.68C40.6671 97.776 40.7151 97.904 40.7151 98.064C40.7151 98.232 40.6071 98.4 40.3911 98.568C40.1831 98.728 39.8991 98.86 39.5391 98.964C39.1871 99.068 38.8071 99.12 38.3991 99.12C37.7911 99.12 37.2551 98.98 36.7911 98.7C36.3271 98.412 35.9671 98.02 35.7111 97.524C35.4631 97.02 35.3391 96.46 35.3391 95.844C35.3391 95.228 35.4711 94.672 35.7351 94.176C35.9991 93.672 36.3671 93.28 36.8391 93C37.3111 92.712 37.8511 92.568 38.4591 92.568ZM46.9872 92.628C47.1552 92.628 47.2912 92.684 47.3952 92.796C47.5072 92.9 47.5632 93.04 47.5632 93.216V98.424C47.5632 98.584 47.5072 98.72 47.3952 98.832C47.2912 98.944 47.1552 99 46.9872 99C46.8192 99 46.6832 98.948 46.5792 98.844C46.4752 98.732 46.4232 98.592 46.4232 98.424V98.112C46.2152 98.392 45.9312 98.632 45.5712 98.832C45.2112 99.024 44.8232 99.12 44.4072 99.12C43.8632 99.12 43.3672 98.98 42.9192 98.7C42.4792 98.42 42.1312 98.032 41.8752 97.536C41.6272 97.032 41.5032 96.468 41.5032 95.844C41.5032 95.22 41.6272 94.66 41.8752 94.164C42.1312 93.66 42.4792 93.268 42.9192 92.988C43.3592 92.708 43.8432 92.568 44.3712 92.568C44.7952 92.568 45.1872 92.656 45.5472 92.832C45.9152 93.008 46.2072 93.232 46.4232 93.504V93.216C46.4232 93.048 46.4752 92.908 46.5792 92.796C46.6832 92.684 46.8192 92.628 46.9872 92.628ZM44.5392 98.064C44.9152 98.064 45.2472 97.968 45.5352 97.776C45.8312 97.584 46.0592 97.32 46.2192 96.984C46.3872 96.648 46.4712 96.268 46.4712 95.844C46.4712 95.428 46.3872 95.052 46.2192 94.716C46.0592 94.38 45.8312 94.116 45.5352 93.924C45.2472 93.724 44.9152 93.624 44.5392 93.624C44.1632 93.624 43.8272 93.72 43.5312 93.912C43.2432 94.104 43.0152 94.368 42.8472 94.704C42.6872 95.04 42.6072 95.42 42.6072 95.844C42.6072 96.268 42.6872 96.648 42.8472 96.984C43.0152 97.32 43.2432 97.584 43.5312 97.776C43.8272 97.968 44.1632 98.064 44.5392 98.064ZM48.8983 98.016C48.8263 97.904 48.7903 97.796 48.7903 97.692C48.7903 97.532 48.8743 97.396 49.0423 97.284C49.1223 97.228 49.2143 97.2 49.3183 97.2C49.4623 97.2 49.5943 97.26 49.7143 97.38C49.9543 97.652 50.2103 97.856 50.4823 97.992C50.7623 98.128 51.0943 98.196 51.4783 98.196C51.7823 98.188 52.0503 98.12 52.2823 97.992C52.5143 97.856 52.6303 97.64 52.6303 97.344C52.6303 97.072 52.5103 96.864 52.2703 96.72C52.0383 96.576 51.6943 96.444 51.2383 96.324C50.7903 96.204 50.4183 96.08 50.1223 95.952C49.8263 95.816 49.5743 95.624 49.3663 95.376C49.1663 95.12 49.0663 94.788 49.0663 94.38C49.0663 94.02 49.1663 93.704 49.3663 93.432C49.5743 93.16 49.8463 92.948 50.1823 92.796C50.5263 92.644 50.8983 92.568 51.2983 92.568C51.6823 92.568 52.0623 92.64 52.4383 92.784C52.8223 92.928 53.1343 93.148 53.3743 93.444C53.4703 93.556 53.5183 93.672 53.5183 93.792C53.5183 93.92 53.4543 94.044 53.3263 94.164C53.2463 94.236 53.1463 94.272 53.0263 94.272C52.8823 94.272 52.7663 94.224 52.6783 94.128C52.5103 93.936 52.3023 93.788 52.0543 93.684C51.8143 93.58 51.5463 93.528 51.2503 93.528C50.9463 93.528 50.6863 93.592 50.4703 93.72C50.2623 93.84 50.1583 94.048 50.1583 94.344C50.1663 94.624 50.2863 94.832 50.5183 94.968C50.7583 95.104 51.1223 95.236 51.6103 95.364C52.0343 95.476 52.3863 95.596 52.6663 95.724C52.9463 95.852 53.1823 96.044 53.3743 96.3C53.5663 96.548 53.6623 96.876 53.6623 97.284C53.6623 97.66 53.5543 97.988 53.3383 98.268C53.1223 98.54 52.8383 98.752 52.4863 98.904C52.1423 99.048 51.7743 99.12 51.3823 99.12C50.8783 99.12 50.4103 99.032 49.9783 98.856C49.5543 98.68 49.1943 98.4 48.8983 98.016ZM63.4051 90.12C63.5731 90.12 63.7091 90.176 63.8131 90.288C63.9251 90.392 63.9811 90.528 63.9811 90.696V98.424C63.9811 98.584 63.9251 98.72 63.8131 98.832C63.7091 98.944 63.5731 99 63.4051 99C63.2371 99 63.1011 98.948 62.9971 98.844C62.8931 98.732 62.8411 98.592 62.8411 98.424V98.088C62.6411 98.376 62.3571 98.62 61.9891 98.82C61.6291 99.02 61.2411 99.12 60.8251 99.12C60.2811 99.12 59.7891 98.98 59.3491 98.7C58.9091 98.42 58.5611 98.032 58.3051 97.536C58.0491 97.032 57.9211 96.468 57.9211 95.844C57.9211 95.22 58.0451 94.66 58.2931 94.164C58.5491 93.66 58.8971 93.268 59.3371 92.988C59.7771 92.708 60.2611 92.568 60.7891 92.568C61.2131 92.568 61.6051 92.656 61.9651 92.832C62.3251 93.008 62.6171 93.236 62.8411 93.516V90.696C62.8411 90.528 62.8931 90.392 62.9971 90.288C63.1011 90.176 63.2371 90.12 63.4051 90.12ZM60.9571 98.064C61.3331 98.064 61.6651 97.968 61.9531 97.776C62.2491 97.584 62.4771 97.32 62.6371 96.984C62.8051 96.648 62.8891 96.268 62.8891 95.844C62.8891 95.428 62.8051 95.052 62.6371 94.716C62.4771 94.372 62.2491 94.104 61.9531 93.912C61.6651 93.72 61.3331 93.624 60.9571 93.624C60.5811 93.624 60.2451 93.72 59.9491 93.912C59.6611 94.104 59.4331 94.372 59.2651 94.716C59.1051 95.052 59.0251 95.428 59.0251 95.844C59.0251 96.268 59.1051 96.648 59.2651 96.984C59.4331 97.32 59.6611 97.584 59.9491 97.776C60.2451 97.968 60.5811 98.064 60.9571 98.064ZM71.1962 95.616C71.1882 95.76 71.1282 95.884 71.0162 95.988C70.9042 96.084 70.7722 96.132 70.6202 96.132H66.3962C66.4522 96.716 66.6722 97.184 67.0562 97.536C67.4482 97.888 67.9242 98.064 68.4842 98.064C68.8682 98.064 69.1802 98.008 69.4202 97.896C69.6602 97.784 69.8722 97.64 70.0562 97.464C70.1762 97.392 70.2922 97.356 70.4042 97.356C70.5402 97.356 70.6522 97.404 70.7402 97.5C70.8362 97.596 70.8842 97.708 70.8842 97.836C70.8842 98.004 70.8042 98.156 70.6442 98.292C70.4122 98.524 70.1042 98.72 69.7202 98.88C69.3362 99.04 68.9442 99.12 68.5442 99.12C67.8962 99.12 67.3242 98.984 66.8282 98.712C66.3402 98.44 65.9602 98.06 65.6882 97.572C65.4242 97.084 65.2922 96.532 65.2922 95.916C65.2922 95.244 65.4282 94.656 65.7002 94.152C65.9802 93.64 66.3442 93.248 66.7922 92.976C67.2482 92.704 67.7362 92.568 68.2562 92.568C68.7682 92.568 69.2482 92.7 69.6962 92.964C70.1442 93.228 70.5042 93.592 70.7762 94.056C71.0482 94.52 71.1882 95.04 71.1962 95.616ZM68.2562 93.624C67.8082 93.624 67.4202 93.752 67.0922 94.008C66.7642 94.256 66.5482 94.644 66.4442 95.172H69.9842V95.076C69.9442 94.652 69.7522 94.304 69.4082 94.032C69.0722 93.76 68.6882 93.624 68.2562 93.624ZM78.5361 99.12C77.9521 99.12 77.4361 99.04 76.9881 98.88C76.5401 98.712 76.1121 98.444 75.7041 98.076C75.5361 97.932 75.4521 97.768 75.4521 97.584C75.4521 97.44 75.5081 97.312 75.6201 97.2C75.7321 97.08 75.8641 97.02 76.0161 97.02C76.1521 97.02 76.2681 97.064 76.3641 97.152C76.6841 97.448 77.0121 97.668 77.3481 97.812C77.6921 97.948 78.0801 98.016 78.5121 98.016C79.0161 98.016 79.4401 97.9 79.7841 97.668C80.1361 97.436 80.3121 97.144 80.3121 96.792C80.3041 96.376 80.1281 96.056 79.7841 95.832C79.4481 95.6 78.9321 95.408 78.2361 95.256C77.4121 95.088 76.7761 94.812 76.3281 94.428C75.8881 94.044 75.6681 93.512 75.6681 92.832C75.6681 92.36 75.7921 91.948 76.0401 91.596C76.2881 91.236 76.6321 90.96 77.0721 90.768C77.5121 90.576 78.0081 90.48 78.5601 90.48C79.0561 90.48 79.5241 90.56 79.9641 90.72C80.4041 90.88 80.7601 91.092 81.0321 91.356C81.2161 91.516 81.3081 91.688 81.3081 91.872C81.3081 92.016 81.2521 92.144 81.1401 92.256C81.0361 92.368 80.9081 92.424 80.7561 92.424C80.6441 92.424 80.5521 92.392 80.4801 92.328C80.2721 92.12 79.9841 91.944 79.6161 91.8C79.2481 91.656 78.8961 91.584 78.5601 91.584C78.0241 91.584 77.5961 91.696 77.2761 91.92C76.9641 92.136 76.8081 92.424 76.8081 92.784C76.8081 93.176 76.9641 93.476 77.2761 93.684C77.5961 93.892 78.0681 94.068 78.6921 94.212C79.3161 94.348 79.8241 94.508 80.2161 94.692C80.6161 94.876 80.9241 95.132 81.1401 95.46C81.3561 95.788 81.4641 96.216 81.4641 96.744C81.4641 97.208 81.3321 97.62 81.0681 97.98C80.8121 98.34 80.4601 98.62 80.0121 98.82C79.5641 99.02 79.0721 99.12 78.5361 99.12ZM88.7845 95.856C88.7845 96.48 88.6445 97.04 88.3645 97.536C88.0845 98.032 87.7005 98.42 87.2125 98.7C86.7325 98.98 86.2005 99.12 85.6165 99.12C85.0325 99.12 84.4965 98.98 84.0085 98.7C83.5285 98.42 83.1485 98.032 82.8685 97.536C82.5885 97.04 82.4485 96.48 82.4485 95.856C82.4485 95.232 82.5885 94.668 82.8685 94.164C83.1485 93.66 83.5285 93.268 84.0085 92.988C84.4965 92.708 85.0325 92.568 85.6165 92.568C86.2005 92.568 86.7325 92.708 87.2125 92.988C87.7005 93.268 88.0845 93.66 88.3645 94.164C88.6445 94.668 88.7845 95.232 88.7845 95.856ZM87.6445 95.856C87.6445 95.424 87.5525 95.04 87.3685 94.704C87.1925 94.36 86.9485 94.096 86.6365 93.912C86.3325 93.72 85.9925 93.624 85.6165 93.624C85.2405 93.624 84.8965 93.72 84.5845 93.912C84.2805 94.096 84.0365 94.36 83.8525 94.704C83.6765 95.04 83.5885 95.424 83.5885 95.856C83.5885 96.28 83.6765 96.66 83.8525 96.996C84.0365 97.332 84.2805 97.596 84.5845 97.788C84.8965 97.972 85.2405 98.064 85.6165 98.064C85.9925 98.064 86.3325 97.972 86.6365 97.788C86.9485 97.596 87.1925 97.332 87.3685 96.996C87.5525 96.66 87.6445 96.28 87.6445 95.856ZM92.7978 91.152C92.5338 91.152 92.3378 91.232 92.2098 91.392C92.0898 91.552 92.0298 91.748 92.0298 91.98V92.82H93.2178C93.3778 92.82 93.5058 92.872 93.6018 92.976C93.7058 93.072 93.7578 93.196 93.7578 93.348C93.7578 93.5 93.7058 93.624 93.6018 93.72C93.5058 93.816 93.3778 93.864 93.2178 93.864H92.0298V98.424C92.0298 98.584 91.9738 98.72 91.8618 98.832C91.7578 98.944 91.6218 99 91.4538 99C91.2938 99 91.1578 98.944 91.0458 98.832C90.9418 98.72 90.8898 98.584 90.8898 98.424V93.864H90.1458C89.9938 93.864 89.8658 93.816 89.7618 93.72C89.6578 93.624 89.6058 93.5 89.6058 93.348C89.6058 93.196 89.6578 93.072 89.7618 92.976C89.8658 92.872 89.9938 92.82 90.1458 92.82H90.8898V91.98C90.8898 91.42 91.0698 90.976 91.4298 90.648C91.7898 90.312 92.2978 90.144 92.9538 90.144C93.2258 90.144 93.4658 90.196 93.6738 90.3C93.8818 90.396 93.9858 90.544 93.9858 90.744C93.9858 90.896 93.9378 91.024 93.8418 91.128C93.7538 91.224 93.6458 91.272 93.5178 91.272C93.4858 91.272 93.3978 91.256 93.2538 91.224C93.0778 91.176 92.9258 91.152 92.7978 91.152ZM96.5248 93.828V97.404C96.5248 97.804 96.7048 98.004 97.0648 98.004C97.1208 98.004 97.1968 97.992 97.2928 97.968C97.3888 97.936 97.4648 97.92 97.5208 97.92C97.6248 97.92 97.7128 97.964 97.7848 98.052C97.8568 98.14 97.8928 98.252 97.8928 98.388C97.8928 98.556 97.7968 98.7 97.6048 98.82C97.4128 98.94 97.1968 99 96.9568 99C96.6928 99 96.4488 98.972 96.2248 98.916C96.0088 98.86 95.8128 98.72 95.6368 98.496C95.4688 98.264 95.3848 97.916 95.3848 97.452V93.828H94.6888C94.5368 93.828 94.4088 93.78 94.3048 93.684C94.2088 93.58 94.1608 93.452 94.1608 93.3C94.1608 93.148 94.2088 93.024 94.3048 92.928C94.4088 92.832 94.5368 92.784 94.6888 92.784H95.3848V91.776C95.3848 91.616 95.4368 91.48 95.5408 91.368C95.6528 91.256 95.7928 91.2 95.9608 91.2C96.1208 91.2 96.2528 91.256 96.3568 91.368C96.4688 91.48 96.5248 91.616 96.5248 91.776V92.784H97.5208C97.6728 92.784 97.7968 92.836 97.8928 92.94C97.9968 93.036 98.0488 93.16 98.0488 93.312C98.0488 93.464 97.9968 93.588 97.8928 93.684C97.7968 93.78 97.6728 93.828 97.5208 93.828H96.5248ZM107.204 92.652C107.356 92.652 107.484 92.708 107.588 92.82C107.7 92.924 107.756 93.06 107.756 93.228C107.756 93.284 107.74 93.36 107.708 93.456L105.872 98.64C105.824 98.768 105.744 98.864 105.632 98.928C105.52 98.992 105.4 99.016 105.272 99C105.056 98.984 104.892 98.864 104.78 98.64L103.532 95.376L102.38 98.64C102.332 98.752 102.264 98.84 102.176 98.904C102.088 98.96 101.992 98.992 101.888 99C101.768 99.016 101.648 98.992 101.528 98.928C101.416 98.856 101.34 98.76 101.3 98.64L99.4398 93.456C99.4158 93.384 99.4038 93.308 99.4038 93.228C99.4038 93.068 99.4558 92.932 99.5598 92.82C99.6638 92.708 99.7998 92.652 99.9678 92.652C100.24 92.652 100.416 92.772 100.496 93.012L101.924 97.056L103.064 94.068C103.16 93.828 103.336 93.708 103.592 93.708C103.832 93.708 103.996 93.828 104.084 94.068L105.248 97.008L106.652 93.012C106.74 92.772 106.924 92.652 107.204 92.652ZM114.136 92.628C114.304 92.628 114.44 92.684 114.544 92.796C114.656 92.9 114.712 93.04 114.712 93.216V98.424C114.712 98.584 114.656 98.72 114.544 98.832C114.44 98.944 114.304 99 114.136 99C113.968 99 113.832 98.948 113.728 98.844C113.624 98.732 113.572 98.592 113.572 98.424V98.112C113.364 98.392 113.08 98.632 112.72 98.832C112.36 99.024 111.972 99.12 111.556 99.12C111.012 99.12 110.516 98.98 110.068 98.7C109.628 98.42 109.28 98.032 109.024 97.536C108.776 97.032 108.652 96.468 108.652 95.844C108.652 95.22 108.776 94.66 109.024 94.164C109.28 93.66 109.628 93.268 110.068 92.988C110.508 92.708 110.992 92.568 111.52 92.568C111.944 92.568 112.336 92.656 112.696 92.832C113.064 93.008 113.356 93.232 113.572 93.504V93.216C113.572 93.048 113.624 92.908 113.728 92.796C113.832 92.684 113.968 92.628 114.136 92.628ZM111.688 98.064C112.064 98.064 112.396 97.968 112.684 97.776C112.98 97.584 113.208 97.32 113.368 96.984C113.536 96.648 113.62 96.268 113.62 95.844C113.62 95.428 113.536 95.052 113.368 94.716C113.208 94.38 112.98 94.116 112.684 93.924C112.396 93.724 112.064 93.624 111.688 93.624C111.312 93.624 110.976 93.72 110.68 93.912C110.392 94.104 110.164 94.368 109.996 94.704C109.836 95.04 109.756 95.42 109.756 95.844C109.756 96.268 109.836 96.648 109.996 96.984C110.164 97.32 110.392 97.584 110.68 97.776C110.976 97.968 111.312 98.064 111.688 98.064ZM119.539 92.568C119.747 92.568 119.927 92.624 120.079 92.736C120.231 92.84 120.307 92.972 120.307 93.132C120.307 93.324 120.255 93.472 120.151 93.576C120.055 93.672 119.935 93.72 119.791 93.72C119.719 93.72 119.611 93.696 119.467 93.648C119.299 93.592 119.167 93.564 119.071 93.564C118.823 93.564 118.579 93.652 118.339 93.828C118.107 93.996 117.915 94.232 117.763 94.536C117.619 94.832 117.547 95.164 117.547 95.532V98.424C117.547 98.584 117.491 98.72 117.379 98.832C117.275 98.944 117.139 99 116.971 99C116.803 99 116.667 98.948 116.563 98.844C116.459 98.732 116.407 98.592 116.407 98.424V93.288C116.407 93.128 116.459 92.992 116.563 92.88C116.675 92.768 116.811 92.712 116.971 92.712C117.139 92.712 117.275 92.768 117.379 92.88C117.491 92.992 117.547 93.128 117.547 93.288V93.9C117.723 93.508 117.987 93.192 118.339 92.952C118.691 92.704 119.091 92.576 119.539 92.568ZM126.614 95.616C126.606 95.76 126.546 95.884 126.434 95.988C126.322 96.084 126.19 96.132 126.038 96.132H121.814C121.87 96.716 122.09 97.184 122.474 97.536C122.866 97.888 123.342 98.064 123.902 98.064C124.286 98.064 124.598 98.008 124.838 97.896C125.078 97.784 125.29 97.64 125.474 97.464C125.594 97.392 125.71 97.356 125.822 97.356C125.958 97.356 126.07 97.404 126.158 97.5C126.254 97.596 126.302 97.708 126.302 97.836C126.302 98.004 126.222 98.156 126.062 98.292C125.83 98.524 125.522 98.72 125.138 98.88C124.754 99.04 124.362 99.12 123.962 99.12C123.314 99.12 122.742 98.984 122.246 98.712C121.758 98.44 121.378 98.06 121.106 97.572C120.842 97.084 120.71 96.532 120.71 95.916C120.71 95.244 120.846 94.656 121.118 94.152C121.398 93.64 121.762 93.248 122.21 92.976C122.666 92.704 123.154 92.568 123.674 92.568C124.186 92.568 124.666 92.7 125.114 92.964C125.562 93.228 125.922 93.592 126.194 94.056C126.466 94.52 126.606 95.04 126.614 95.616ZM123.674 93.624C123.226 93.624 122.838 93.752 122.51 94.008C122.182 94.256 121.966 94.644 121.862 95.172H125.402V95.076C125.362 94.652 125.17 94.304 124.826 94.032C124.49 93.76 124.106 93.624 123.674 93.624Z" fill="white"/>
</g>
<defs>
<filter id="filter0_d_1209_183" x="26.1748" y="20.54" width="90.6758" height="29.75" filterUnits="userSpaceOnUse" color-interpolation-filters="sRGB">
<feFlood flood-opacity="0" result="BackgroundImageFix"/>
<feColorMatrix in="SourceAlpha" type="matrix" values="0 0 0 0 0 0 0 0 0 0 0 0 0 0 0 0 0 0 127 0" result="hardAlpha"/>
<feOffset dx="4" dy="4"/>
<feGaussianBlur stdDeviation="2"/>
<feColorMatrix type="matrix" values="0 0 0 0 1 0 0 0 0 1 0 0 0 0 1 0 0 0 0.25 0"/>
<feBlend mode="normal" in2="BackgroundImageFix" result="effect1_dropShadow_1209_183"/>
<feBlend mode="normal" in="SourceGraphic" in2="effect1_dropShadow_1209_183" result="shape"/>
</filter>
<filter id="filter1_d_1209_183" x="6.91016" y="75.12" width="127.704" height="32" filterUnits="userSpaceOnUse" color-interpolation-filters="sRGB">
<feFlood flood-opacity="0" result="BackgroundImageFix"/>
<feColorMatrix in="SourceAlpha" type="matrix" values="0 0 0 0 0 0 0 0 0 0 0 0 0 0 0 0 0 0 127 0" result="hardAlpha"/>
<feOffset dx="4" dy="4"/>
<feGaussianBlur stdDeviation="2"/>
<feColorMatrix type="matrix" values="0 0 0 0 0 0 0 0 0 0 0 0 0 0 0 0 0 0 0.25 0"/>
<feBlend mode="normal" in2="BackgroundImageFix" result="effect1_dropShadow_1209_183"/>
<feBlend mode="normal" in="SourceGraphic" in2="effect1_dropShadow_1209_183" result="shape"/>
</filter>
</defs>
</svg>
